# xmcd
# 
# Track frame offsets:
#     183
#     11300
#     32750
#     47668
#     61633
#     83630
#     99870
#     120473
#     137298
#     147660
#     172028
#     181543
#     197353
#     219935
#     234598
#     255630
#     268383
#     288855
# 
# Disc length: 4056
# 
# Revision: 3
# Processed by: cddbd v1.5.2PL0 Copyright (c) Steve Scherf et al.
# Submitted via: BonkEnc v1.0.15
# 
DISCID=e70fd612
DTITLE=Pavarotti - The Essential Pavarotti
DYEAR=1990
DGENRE=Opera
TTITLE0=La Donna E Mobile
TTITLE1=Che Gelida Manina
TTITLE2=E Lucevan Le Stelle
TTITLE3=Nessun Dorma
TTITLE4=Una Furtiva Lagrima
TTITLE5=M'appari
TTITLE6=La Fleur Que Tu M'avais Jetee
TTITLE7=Vesti La Giubba
TTITLE8=Di Quella Pira
TTITLE9=Caruso
TTITLE10=Mattinata
TTITLE11=Aprile
TTITLE12=Core 'Ngrato
TTITLE13=La Danza
TTITLE14=Volare
TTITLE15=Funiculi Funicula
TTITLE16=Torna A Surriento
TTITLE17=O Sole Mio
EXTD=
EXTT0=
EXTT1=
EXTT2=
EXTT3=
EXTT4=
EXTT5=
EXTT6=
EXTT7=
EXTT8=
EXTT9=
EXTT10=
EXTT11=
EXTT12=
EXTT13=
EXTT14=
EXTT15=
EXTT16=
EXTT17=
PLAYORDER=
